# xmcd CD database file
#
# Track frame offsets:
#	150
#	13569
#	27724
#	47182
#	59236
#	70969
#	87149
#	100102
#	112772
#	129847
#	145126
#	159397
#	175275
#	194067
#	206337
#	219787
#	233811
#	250046
#	265025
#	277243
#	291469
#	306872
#	321277
#
# Disc length: 4529 seconds
#
# Revision: 1
# Processed by: cddbd v1.5.2PL0 Copyright (c) Steve Scherf et al.
# Submitted via: CDex 1.70beta2
#
DISCID=5711af17
DTITLE=Teddy Wilson Trio w. Jo Jones - Complete Recordings - CD 1
DYEAR=2007
DGENRE=Jazz
TTITLE0=Blues for the Oldest Profession
TTITLE1=It Had to Be You
TTITLE2=You Took Advantage of Me
TTITLE3=Three Little Words
TTITLE4=If I Had You
TTITLE5=Who's Sorry Now
TTITLE6=The Birth of the Blues
TTITLE7=When Your Lover Has Gone
TTITLE8=Moonlight on the Ganges
TTITLE9=April in Paris
TTITLE10=Hallelujah
TTITLE11=Get Out of Town
TTITLE12=Stompin' at the Savoy
TTITLE13=Say it Isn't So
TTITLE14=All of Me
TTITLE15=Stars Fell on Alabama
TTITLE16=I got Rhythm
TTITLE17=On the Sunny Side of the Street
TTITLE18=Sweet Georgia Brown
TTITLE19=As Time Goes By
TTITLE20=Smiles
TTITLE21=When Your Lover Has Gone
TTITLE22=Limehouse Blues
EXTD=YEAR: 2007
EXTT0=
EXTT1=
EXTT2=
EXTT3=
EXTT4=
EXTT5=
EXTT6=
EXTT7=
EXTT8=
EXTT9=
EXTT10=
EXTT11=
EXTT12=
EXTT13=
EXTT14=
EXTT15=
EXTT16=
EXTT17=
EXTT18=
EXTT19=
EXTT20=
EXTT21=
EXTT22=
PLAYORDER=
